solid OpenSCAD_Model
  facet normal 0.951059 0.309009 0
    outer loop
      vertex 27.3881 5.82153 200
      vertex 25.5793 11.3886 0
      vertex 25.5793 11.3886 200
    endloop
  endfacet
  facet normal 0.951059 0.309009 0
    outer loop
      vertex 25.5793 11.3886 0
      vertex 27.3881 5.82153 200
      vertex 27.3881 5.82153 0
    endloop
  endfacet
  facet normal 0.994521 0.104534 0
    outer loop
      vertex 28 0 200
      vertex 27.3881 5.82153 0
      vertex 27.3881 5.82153 200
    endloop
  endfacet
  facet normal 0.994521 0.104534 0
    outer loop
      vertex 27.3881 5.82153 0
      vertex 28 0 200
      vertex 28 0 0
    endloop
  endfacet
  facet normal 0.866027 0.499998 0
    outer loop
      vertex 25.5793 11.3886 200
      vertex 22.6525 16.458 0
      vertex 22.6525 16.458 200
    endloop
  endfacet
  facet normal 0.866027 0.499998 0
    outer loop
      vertex 22.6525 16.458 0
      vertex 25.5793 11.3886 200
      vertex 25.5793 11.3886 0
    endloop
  endfacet
  facet normal 0.587775 0.809024 -0
    outer loop
      vertex 18.7357 20.8081 0
      vertex 14 24.2487 200
      vertex 18.7357 20.8081 200
    endloop
  endfacet
  facet normal 0.587775 0.809024 0
    outer loop
      vertex 14 24.2487 200
      vertex 18.7357 20.8081 0
      vertex 14 24.2487 0
    endloop
  endfacet
  facet normal 0.951059 -0.309009 0
    outer loop
      vertex 25.5793 -11.3886 200
      vertex 27.3881 -5.82153 0
      vertex 27.3881 -5.82153 200
    endloop
  endfacet
  facet normal 0.951059 -0.309009 0
    outer loop
      vertex 27.3881 -5.82153 0
      vertex 25.5793 -11.3886 200
      vertex 25.5793 -11.3886 0
    endloop
  endfacet
  facet normal 0.994521 -0.104534 0
    outer loop
      vertex 27.3881 -5.82153 200
      vertex 28 0 0
      vertex 28 0 200
    endloop
  endfacet
  facet normal 0.994521 -0.104534 0
    outer loop
      vertex 28 0 0
      vertex 27.3881 -5.82153 200
      vertex 27.3881 -5.82153 0
    endloop
  endfacet
  facet normal 0.743149 0.669126 0
    outer loop
      vertex 22.6525 16.458 200
      vertex 18.7357 20.8081 0
      vertex 18.7357 20.8081 200
    endloop
  endfacet
  facet normal 0.743149 0.669126 0
    outer loop
      vertex 18.7357 20.8081 0
      vertex 22.6525 16.458 200
      vertex 22.6525 16.458 0
    endloop
  endfacet
  facet normal -0.951059 -0.309009 0
    outer loop
      vertex -25.5793 -11.3886 0
      vertex -27.3881 -5.82153 200
      vertex -27.3881 -5.82153 0
    endloop
  endfacet
  facet normal -0.951059 -0.309009 0
    outer loop
      vertex -27.3881 -5.82153 200
      vertex -25.5793 -11.3886 0
      vertex -25.5793 -11.3886 200
    endloop
  endfacet
  facet normal -0.743149 0.669126 0
    outer loop
      vertex -22.6525 16.458 0
      vertex -18.7357 20.8081 200
      vertex -18.7357 20.8081 0
    endloop
  endfacet
  facet normal -0.743149 0.669126 0
    outer loop
      vertex -18.7357 20.8081 200
      vertex -22.6525 16.458 0
      vertex -22.6525 16.458 200
    endloop
  endfacet
  facet normal -0.951059 0.309009 0
    outer loop
      vertex -27.3881 5.82153 0
      vertex -25.5793 11.3886 200
      vertex -25.5793 11.3886 0
    endloop
  endfacet
  facet normal -0.951059 0.309009 0
    outer loop
      vertex -25.5793 11.3886 200
      vertex -27.3881 5.82153 0
      vertex -27.3881 5.82153 200
    endloop
  endfacet
  facet normal 0.587775 -0.809024 0
    outer loop
      vertex 14 -24.2487 0
      vertex 18.7357 -20.8081 200
      vertex 14 -24.2487 200
    endloop
  endfacet
  facet normal 0.587775 -0.809024 0
    outer loop
      vertex 18.7357 -20.8081 200
      vertex 14 -24.2487 0
      vertex 18.7357 -20.8081 0
    endloop
  endfacet
  facet normal -0.587775 0.809024 0
    outer loop
      vertex -14 24.2487 0
      vertex -18.7357 20.8081 200
      vertex -14 24.2487 200
    endloop
  endfacet
  facet normal -0.587775 0.809024 0
    outer loop
      vertex -18.7357 20.8081 200
      vertex -14 24.2487 0
      vertex -18.7357 20.8081 0
    endloop
  endfacet
  facet normal 0 0 1
    outer loop
      vertex 18.5 0 200
      vertex 28 0 200
      vertex 27.3881 5.82153 200
    endloop
  endfacet
  facet normal 0 0 1
    outer loop
      vertex 18.0957 3.84637 200
      vertex 27.3881 5.82153 200
      vertex 25.5793 11.3886 200
    endloop
  endfacet
  facet normal 0 0 1
    outer loop
      vertex 28 0 200
      vertex 18.5 0 200
      vertex 27.3881 -5.82153 200
    endloop
  endfacet
  facet normal 0 0 1
    outer loop
      vertex 16.9006 7.52463 200
      vertex 25.5793 11.3886 200
      vertex 22.6525 16.458 200
    endloop
  endfacet
  facet normal -0 0 1
    outer loop
      vertex 18.0957 -3.84637 200
      vertex 27.3881 -5.82153 200
      vertex 18.5 0 200
    endloop
  endfacet
  facet normal 0 0 1
    outer loop
      vertex 14.9668 10.874 200
      vertex 22.6525 16.458 200
      vertex 18.7357 20.8081 200
    endloop
  endfacet
  facet normal 0 0 1
    outer loop
      vertex 27.3881 -5.82153 200
      vertex 18.0957 -3.84637 200
      vertex 25.5793 -11.3886 200
    endloop
  endfacet
  facet normal -0 0 1
    outer loop
      vertex 16.9006 -7.52463 200
      vertex 25.5793 -11.3886 200
      vertex 18.0957 -3.84637 200
    endloop
  endfacet
  facet normal 0 0 1
    outer loop
      vertex 27.3881 5.82153 200
      vertex 18.0957 3.84637 200
      vertex 18.5 0 200
    endloop
  endfacet
  facet normal 0 0 1
    outer loop
      vertex 25.5793 11.3886 200
      vertex 16.9006 7.52463 200
      vertex 18.0957 3.84637 200
    endloop
  endfacet
  facet normal 0 0 1
    outer loop
      vertex 22.6525 16.458 200
      vertex 14.9668 10.874 200
      vertex 16.9006 7.52463 200
    endloop
  endfacet
  facet normal 0 0 1
    outer loop
      vertex 12.3789 13.7482 200
      vertex 18.7357 20.8081 200
      vertex 14 24.2487 200
    endloop
  endfacet
  facet normal 0 0 1
    outer loop
      vertex 18.7357 20.8081 200
      vertex 12.3789 13.7482 200
      vertex 14.9668 10.874 200
    endloop
  endfacet
  facet normal 0 0 1
    outer loop
      vertex 14 24.2487 200
      vertex 9.25 16.0215 200
      vertex 12.3789 13.7482 200
    endloop
  endfacet
  facet normal 0 0 1
    outer loop
      vertex 8.65248 26.6296 200
      vertex 9.25 16.0215 200
      vertex 14 24.2487 200
    endloop
  endfacet
  facet normal 0 0 1
    outer loop
      vertex 8.65248 26.6296 200
      vertex 5.71681 17.5945 200
      vertex 9.25 16.0215 200
    endloop
  endfacet
  facet normal 0 0 1
    outer loop
      vertex 2.9268 27.8466 200
      vertex 5.71681 17.5945 200
      vertex 8.65248 26.6296 200
    endloop
  endfacet
  facet normal 0 0 1
    outer loop
      vertex 2.9268 27.8466 200
      vertex 1.93378 18.3987 200
      vertex 5.71681 17.5945 200
    endloop
  endfacet
  facet normal 0 0 1
    outer loop
      vertex 2.9268 27.8466 200
      vertex -1.93378 18.3987 200
      vertex 1.93378 18.3987 200
    endloop
  endfacet
  facet normal -0 0 1
    outer loop
      vertex -2.9268 27.8466 200
      vertex -1.93378 18.3987 200
      vertex 2.9268 27.8466 200
    endloop
  endfacet
  facet normal 0 0 1
    outer loop
      vertex -2.9268 27.8466 200
      vertex -5.71681 17.5945 200
      vertex -1.93378 18.3987 200
    endloop
  endfacet
  facet normal -0 0 1
    outer loop
      vertex -8.65248 26.6296 200
      vertex -5.71681 17.5945 200
      vertex -2.9268 27.8466 200
    endloop
  endfacet
  facet normal 0 0 1
    outer loop
      vertex -8.65248 26.6296 200
      vertex -9.25 16.0215 200
      vertex -5.71681 17.5945 200
    endloop
  endfacet
  facet normal -0 0 1
    outer loop
      vertex -14 24.2487 200
      vertex -9.25 16.0215 200
      vertex -8.65248 26.6296 200
    endloop
  endfacet
  facet normal 0 0 1
    outer loop
      vertex -9.25 16.0215 200
      vertex -14 24.2487 200
      vertex -12.3789 13.7482 200
    endloop
  endfacet
  facet normal -0 0 1
    outer loop
      vertex -18.7357 20.8081 200
      vertex -12.3789 13.7482 200
      vertex -14 24.2487 200
    endloop
  endfacet
  facet normal 0 0 1
    outer loop
      vertex -12.3789 13.7482 200
      vertex -18.7357 20.8081 200
      vertex -14.9668 10.874 200
    endloop
  endfacet
  facet normal -0 0 1
    outer loop
      vertex -22.6525 16.458 200
      vertex -14.9668 10.874 200
      vertex -18.7357 20.8081 200
    endloop
  endfacet
  facet normal -0 0 1
    outer loop
      vertex -25.5793 11.3886 200
      vertex -16.9006 7.52463 200
      vertex -22.6525 16.458 200
    endloop
  endfacet
  facet normal 0 0 1
    outer loop
      vertex -14.9668 10.874 200
      vertex -22.6525 16.458 200
      vertex -16.9006 7.52463 200
    endloop
  endfacet
  facet normal 0 0 1
    outer loop
      vertex 25.5793 -11.3886 200
      vertex 16.9006 -7.52463 200
      vertex 22.6525 -16.458 200
    endloop
  endfacet
  facet normal -0 0 1
    outer loop
      vertex 14.9668 -10.874 200
      vertex 22.6525 -16.458 200
      vertex 16.9006 -7.52463 200
    endloop
  endfacet
  facet normal 0 0 1
    outer loop
      vertex 22.6525 -16.458 200
      vertex 14.9668 -10.874 200
      vertex 18.7357 -20.8081 200
    endloop
  endfacet
  facet normal -0 0 1
    outer loop
      vertex 12.3789 -13.7482 200
      vertex 18.7357 -20.8081 200
      vertex 14.9668 -10.874 200
    endloop
  endfacet
  facet normal 0 0 1
    outer loop
      vertex 18.7357 -20.8081 200
      vertex 12.3789 -13.7482 200
      vertex 14 -24.2487 200
    endloop
  endfacet
  facet normal -0 0 1
    outer loop
      vertex 9.25 -16.0215 200
      vertex 14 -24.2487 200
      vertex 12.3789 -13.7482 200
    endloop
  endfacet
  facet normal 0 0 1
    outer loop
      vertex 9.25 -16.0215 200
      vertex 8.65248 -26.6296 200
      vertex 14 -24.2487 200
    endloop
  endfacet
  facet normal -0 0 1
    outer loop
      vertex 5.71681 -17.5945 200
      vertex 8.65248 -26.6296 200
      vertex 9.25 -16.0215 200
    endloop
  endfacet
  facet normal 0 0 1
    outer loop
      vertex 5.71681 -17.5945 200
      vertex 2.9268 -27.8466 200
      vertex 8.65248 -26.6296 200
    endloop
  endfacet
  facet normal -0 0 1
    outer loop
      vertex 1.93378 -18.3987 200
      vertex 2.9268 -27.8466 200
      vertex 5.71681 -17.5945 200
    endloop
  endfacet
  facet normal -0 0 1
    outer loop
      vertex -1.93378 -18.3987 200
      vertex 2.9268 -27.8466 200
      vertex 1.93378 -18.3987 200
    endloop
  endfacet
  facet normal 0 0 1
    outer loop
      vertex -1.93378 -18.3987 200
      vertex -2.9268 -27.8466 200
      vertex 2.9268 -27.8466 200
    endloop
  endfacet
  facet normal 0 0 1
    outer loop
      vertex -5.71681 -17.5945 200
      vertex -2.9268 -27.8466 200
      vertex -1.93378 -18.3987 200
    endloop
  endfacet
  facet normal 0 0 1
    outer loop
      vertex -5.71681 -17.5945 200
      vertex -8.65248 -26.6296 200
      vertex -2.9268 -27.8466 200
    endloop
  endfacet
  facet normal 0 0 1
    outer loop
      vertex -9.25 -16.0215 200
      vertex -8.65248 -26.6296 200
      vertex -5.71681 -17.5945 200
    endloop
  endfacet
  facet normal 0 0 1
    outer loop
      vertex -14 -24.2487 200
      vertex -9.25 -16.0215 200
      vertex -12.3789 -13.7482 200
    endloop
  endfacet
  facet normal 0 0 1
    outer loop
      vertex -9.25 -16.0215 200
      vertex -14 -24.2487 200
      vertex -8.65248 -26.6296 200
    endloop
  endfacet
  facet normal 0 0 1
    outer loop
      vertex -18.7357 -20.8081 200
      vertex -12.3789 -13.7482 200
      vertex -14.9668 -10.874 200
    endloop
  endfacet
  facet normal 0 0 1
    outer loop
      vertex -22.6525 -16.458 200
      vertex -14.9668 -10.874 200
      vertex -16.9006 -7.52463 200
    endloop
  endfacet
  facet normal 0 0 1
    outer loop
      vertex -25.5793 -11.3886 200
      vertex -16.9006 -7.52463 200
      vertex -18.0957 -3.84637 200
    endloop
  endfacet
  facet normal 0 0 1
    outer loop
      vertex -12.3789 -13.7482 200
      vertex -18.7357 -20.8081 200
      vertex -14 -24.2487 200
    endloop
  endfacet
  facet normal 0 0 1
    outer loop
      vertex -27.3881 -5.82153 200
      vertex -18.0957 -3.84637 200
      vertex -18.5 0 200
    endloop
  endfacet
  facet normal 0 0 1
    outer loop
      vertex -16.9006 7.52463 200
      vertex -25.5793 11.3886 200
      vertex -18.0957 3.84637 200
    endloop
  endfacet
  facet normal -0 0 1
    outer loop
      vertex -27.3881 5.82153 200
      vertex -18.0957 3.84637 200
      vertex -25.5793 11.3886 200
    endloop
  endfacet
  facet normal 0 0 1
    outer loop
      vertex -14.9668 -10.874 200
      vertex -22.6525 -16.458 200
      vertex -18.7357 -20.8081 200
    endloop
  endfacet
  facet normal 0 0 1
    outer loop
      vertex -18.0957 3.84637 200
      vertex -27.3881 5.82153 200
      vertex -18.5 0 200
    endloop
  endfacet
  facet normal 0 0 1
    outer loop
      vertex -16.9006 -7.52463 200
      vertex -25.5793 -11.3886 200
      vertex -22.6525 -16.458 200
    endloop
  endfacet
  facet normal 0 0 1
    outer loop
      vertex -28 0 200
      vertex -18.5 0 200
      vertex -27.3881 5.82153 200
    endloop
  endfacet
  facet normal 0 0 1
    outer loop
      vertex -18.0957 -3.84637 200
      vertex -27.3881 -5.82153 200
      vertex -25.5793 -11.3886 200
    endloop
  endfacet
  facet normal 0 0 1
    outer loop
      vertex -18.5 0 200
      vertex -28 0 200
      vertex -27.3881 -5.82153 200
    endloop
  endfacet
  facet normal -0.866027 0.499998 0
    outer loop
      vertex -25.5793 11.3886 0
      vertex -22.6525 16.458 200
      vertex -22.6525 16.458 0
    endloop
  endfacet
  facet normal -0.866027 0.499998 0
    outer loop
      vertex -22.6525 16.458 200
      vertex -25.5793 11.3886 0
      vertex -25.5793 11.3886 200
    endloop
  endfacet
  facet normal 0.866027 -0.499998 0
    outer loop
      vertex 22.6525 -16.458 200
      vertex 25.5793 -11.3886 0
      vertex 25.5793 -11.3886 200
    endloop
  endfacet
  facet normal 0.866027 -0.499998 0
    outer loop
      vertex 25.5793 -11.3886 0
      vertex 22.6525 -16.458 200
      vertex 22.6525 -16.458 0
    endloop
  endfacet
  facet normal 0 1 -0
    outer loop
      vertex 2.9268 27.8466 0
      vertex -2.9268 27.8466 200
      vertex 2.9268 27.8466 200
    endloop
  endfacet
  facet normal 0 1 0
    outer loop
      vertex -2.9268 27.8466 200
      vertex 2.9268 27.8466 0
      vertex -2.9268 27.8466 0
    endloop
  endfacet
  facet normal -0.406741 0.913544 0
    outer loop
      vertex -8.65248 26.6296 0
      vertex -14 24.2487 200
      vertex -8.65248 26.6296 200
    endloop
  endfacet
  facet normal -0.406741 0.913544 0
    outer loop
      vertex -14 24.2487 200
      vertex -8.65248 26.6296 0
      vertex -14 24.2487 0
    endloop
  endfacet
  facet normal -0.207907 -0.978149 0
    outer loop
      vertex -8.65248 -26.6296 0
      vertex -2.9268 -27.8466 200
      vertex -8.65248 -26.6296 200
    endloop
  endfacet
  facet normal -0.207907 -0.978149 -0
    outer loop
      vertex -2.9268 -27.8466 200
      vertex -8.65248 -26.6296 0
      vertex -2.9268 -27.8466 0
    endloop
  endfacet
  facet normal 0 -1 0
    outer loop
      vertex -2.9268 -27.8466 0
      vertex 2.9268 -27.8466 200
      vertex -2.9268 -27.8466 200
    endloop
  endfacet
  facet normal 0 -1 -0
    outer loop
      vertex 2.9268 -27.8466 200
      vertex -2.9268 -27.8466 0
      vertex 2.9268 -27.8466 0
    endloop
  endfacet
  facet normal -0.207907 0.978149 0
    outer loop
      vertex -2.9268 27.8466 0
      vertex -8.65248 26.6296 200
      vertex -2.9268 27.8466 200
    endloop
  endfacet
  facet normal -0.207907 0.978149 0
    outer loop
      vertex -8.65248 26.6296 200
      vertex -2.9268 27.8466 0
      vertex -8.65248 26.6296 0
    endloop
  endfacet
  facet normal 0.207907 -0.978149 0
    outer loop
      vertex 2.9268 -27.8466 0
      vertex 8.65248 -26.6296 200
      vertex 2.9268 -27.8466 200
    endloop
  endfacet
  facet normal 0.207907 -0.978149 0
    outer loop
      vertex 8.65248 -26.6296 200
      vertex 2.9268 -27.8466 0
      vertex 8.65248 -26.6296 0
    endloop
  endfacet
  facet normal 0.743149 -0.669126 0
    outer loop
      vertex 18.7357 -20.8081 200
      vertex 22.6525 -16.458 0
      vertex 22.6525 -16.458 200
    endloop
  endfacet
  facet normal 0.743149 -0.669126 0
    outer loop
      vertex 22.6525 -16.458 0
      vertex 18.7357 -20.8081 200
      vertex 18.7357 -20.8081 0
    endloop
  endfacet
  facet normal 0.406741 -0.913544 0
    outer loop
      vertex 8.65248 -26.6296 0
      vertex 14 -24.2487 200
      vertex 8.65248 -26.6296 200
    endloop
  endfacet
  facet normal 0.406741 -0.913544 0
    outer loop
      vertex 14 -24.2487 200
      vertex 8.65248 -26.6296 0
      vertex 14 -24.2487 0
    endloop
  endfacet
  facet normal -0.587775 -0.809024 0
    outer loop
      vertex -18.7357 -20.8081 0
      vertex -14 -24.2487 200
      vertex -18.7357 -20.8081 200
    endloop
  endfacet
  facet normal -0.587775 -0.809024 -0
    outer loop
      vertex -14 -24.2487 200
      vertex -18.7357 -20.8081 0
      vertex -14 -24.2487 0
    endloop
  endfacet
  facet normal -0.994521 0.104534 0
    outer loop
      vertex -28 0 0
      vertex -27.3881 5.82153 200
      vertex -27.3881 5.82153 0
    endloop
  endfacet
  facet normal -0.994521 0.104534 0
    outer loop
      vertex -27.3881 5.82153 200
      vertex -28 0 0
      vertex -28 0 200
    endloop
  endfacet
  facet normal 0.207907 0.978149 -0
    outer loop
      vertex 8.65248 26.6296 0
      vertex 2.9268 27.8466 200
      vertex 8.65248 26.6296 200
    endloop
  endfacet
  facet normal 0.207907 0.978149 0
    outer loop
      vertex 2.9268 27.8466 200
      vertex 8.65248 26.6296 0
      vertex 2.9268 27.8466 0
    endloop
  endfacet
  facet normal -0.866027 -0.499998 0
    outer loop
      vertex -22.6525 -16.458 0
      vertex -25.5793 -11.3886 200
      vertex -25.5793 -11.3886 0
    endloop
  endfacet
  facet normal -0.866027 -0.499998 0
    outer loop
      vertex -25.5793 -11.3886 200
      vertex -22.6525 -16.458 0
      vertex -22.6525 -16.458 200
    endloop
  endfacet
  facet normal 0.406741 0.913544 -0
    outer loop
      vertex 14 24.2487 0
      vertex 8.65248 26.6296 200
      vertex 14 24.2487 200
    endloop
  endfacet
  facet normal 0.406741 0.913544 0
    outer loop
      vertex 8.65248 26.6296 200
      vertex 14 24.2487 0
      vertex 8.65248 26.6296 0
    endloop
  endfacet
  facet normal -0.994521 -0.104534 0
    outer loop
      vertex -27.3881 -5.82153 0
      vertex -28 0 200
      vertex -28 0 0
    endloop
  endfacet
  facet normal -0.994521 -0.104534 0
    outer loop
      vertex -28 0 200
      vertex -27.3881 -5.82153 0
      vertex -27.3881 -5.82153 200
    endloop
  endfacet
  facet normal -0.743149 -0.669126 0
    outer loop
      vertex -18.7357 -20.8081 0
      vertex -22.6525 -16.458 200
      vertex -22.6525 -16.458 0
    endloop
  endfacet
  facet normal -0.743149 -0.669126 0
    outer loop
      vertex -22.6525 -16.458 200
      vertex -18.7357 -20.8081 0
      vertex -18.7357 -20.8081 200
    endloop
  endfacet
  facet normal 0 0 -1
    outer loop
      vertex 18.5 0 0
      vertex 28 0 0
      vertex 27.3881 -5.82153 0
    endloop
  endfacet
  facet normal 0 0 -1
    outer loop
      vertex 18.0957 -3.84637 0
      vertex 27.3881 -5.82153 0
      vertex 25.5793 -11.3886 0
    endloop
  endfacet
  facet normal 0 0 -1
    outer loop
      vertex 28 0 0
      vertex 18.5 0 0
      vertex 27.3881 5.82153 0
    endloop
  endfacet
  facet normal 0 0 -1
    outer loop
      vertex 16.9006 -7.52463 0
      vertex 25.5793 -11.3886 0
      vertex 22.6525 -16.458 0
    endloop
  endfacet
  facet normal 0 0 -1
    outer loop
      vertex 18.0957 3.84637 0
      vertex 27.3881 5.82153 0
      vertex 18.5 0 0
    endloop
  endfacet
  facet normal 0 0 -1
    outer loop
      vertex 14.9668 -10.874 0
      vertex 22.6525 -16.458 0
      vertex 18.7357 -20.8081 0
    endloop
  endfacet
  facet normal -0 0 -1
    outer loop
      vertex 27.3881 5.82153 0
      vertex 18.0957 3.84637 0
      vertex 25.5793 11.3886 0
    endloop
  endfacet
  facet normal 0 0 -1
    outer loop
      vertex 16.9006 7.52463 0
      vertex 25.5793 11.3886 0
      vertex 18.0957 3.84637 0
    endloop
  endfacet
  facet normal 0 0 -1
    outer loop
      vertex 27.3881 -5.82153 0
      vertex 18.0957 -3.84637 0
      vertex 18.5 0 0
    endloop
  endfacet
  facet normal 0 0 -1
    outer loop
      vertex 25.5793 -11.3886 0
      vertex 16.9006 -7.52463 0
      vertex 18.0957 -3.84637 0
    endloop
  endfacet
  facet normal 0 0 -1
    outer loop
      vertex 22.6525 -16.458 0
      vertex 14.9668 -10.874 0
      vertex 16.9006 -7.52463 0
    endloop
  endfacet
  facet normal 0 0 -1
    outer loop
      vertex 12.3789 -13.7482 0
      vertex 18.7357 -20.8081 0
      vertex 14 -24.2487 0
    endloop
  endfacet
  facet normal 0 0 -1
    outer loop
      vertex 18.7357 -20.8081 0
      vertex 12.3789 -13.7482 0
      vertex 14.9668 -10.874 0
    endloop
  endfacet
  facet normal 0 0 -1
    outer loop
      vertex 14 -24.2487 0
      vertex 9.25 -16.0215 0
      vertex 12.3789 -13.7482 0
    endloop
  endfacet
  facet normal 0 0 -1
    outer loop
      vertex 8.65248 -26.6296 0
      vertex 9.25 -16.0215 0
      vertex 14 -24.2487 0
    endloop
  endfacet
  facet normal 0 0 -1
    outer loop
      vertex 8.65248 -26.6296 0
      vertex 5.71681 -17.5945 0
      vertex 9.25 -16.0215 0
    endloop
  endfacet
  facet normal 0 0 -1
    outer loop
      vertex 2.9268 -27.8466 0
      vertex 5.71681 -17.5945 0
      vertex 8.65248 -26.6296 0
    endloop
  endfacet
  facet normal 0 0 -1
    outer loop
      vertex 2.9268 -27.8466 0
      vertex 1.93378 -18.3987 0
      vertex 5.71681 -17.5945 0
    endloop
  endfacet
  facet normal 0 0 -1
    outer loop
      vertex 2.9268 -27.8466 0
      vertex -1.93378 -18.3987 0
      vertex 1.93378 -18.3987 0
    endloop
  endfacet
  facet normal 0 0 -1
    outer loop
      vertex -2.9268 -27.8466 0
      vertex -1.93378 -18.3987 0
      vertex 2.9268 -27.8466 0
    endloop
  endfacet
  facet normal 0 0 -1
    outer loop
      vertex -2.9268 -27.8466 0
      vertex -5.71681 -17.5945 0
      vertex -1.93378 -18.3987 0
    endloop
  endfacet
  facet normal 0 0 -1
    outer loop
      vertex -8.65248 -26.6296 0
      vertex -5.71681 -17.5945 0
      vertex -2.9268 -27.8466 0
    endloop
  endfacet
  facet normal 0 0 -1
    outer loop
      vertex -8.65248 -26.6296 0
      vertex -9.25 -16.0215 0
      vertex -5.71681 -17.5945 0
    endloop
  endfacet
  facet normal 0 0 -1
    outer loop
      vertex -14 -24.2487 0
      vertex -9.25 -16.0215 0
      vertex -8.65248 -26.6296 0
    endloop
  endfacet
  facet normal -0 0 -1
    outer loop
      vertex -9.25 -16.0215 0
      vertex -14 -24.2487 0
      vertex -12.3789 -13.7482 0
    endloop
  endfacet
  facet normal 0 0 -1
    outer loop
      vertex -18.7357 -20.8081 0
      vertex -12.3789 -13.7482 0
      vertex -14 -24.2487 0
    endloop
  endfacet
  facet normal -0 0 -1
    outer loop
      vertex -12.3789 -13.7482 0
      vertex -18.7357 -20.8081 0
      vertex -14.9668 -10.874 0
    endloop
  endfacet
  facet normal 0 0 -1
    outer loop
      vertex -22.6525 -16.458 0
      vertex -14.9668 -10.874 0
      vertex -18.7357 -20.8081 0
    endloop
  endfacet
  facet normal 0 0 -1
    outer loop
      vertex -25.5793 -11.3886 0
      vertex -16.9006 -7.52463 0
      vertex -22.6525 -16.458 0
    endloop
  endfacet
  facet normal -0 0 -1
    outer loop
      vertex -14.9668 -10.874 0
      vertex -22.6525 -16.458 0
      vertex -16.9006 -7.52463 0
    endloop
  endfacet
  facet normal -0 0 -1
    outer loop
      vertex 25.5793 11.3886 0
      vertex 16.9006 7.52463 0
      vertex 22.6525 16.458 0
    endloop
  endfacet
  facet normal 0 0 -1
    outer loop
      vertex 14.9668 10.874 0
      vertex 22.6525 16.458 0
      vertex 16.9006 7.52463 0
    endloop
  endfacet
  facet normal -0 0 -1
    outer loop
      vertex 22.6525 16.458 0
      vertex 14.9668 10.874 0
      vertex 18.7357 20.8081 0
    endloop
  endfacet
  facet normal 0 0 -1
    outer loop
      vertex 12.3789 13.7482 0
      vertex 18.7357 20.8081 0
      vertex 14.9668 10.874 0
    endloop
  endfacet
  facet normal -0 0 -1
    outer loop
      vertex 18.7357 20.8081 0
      vertex 12.3789 13.7482 0
      vertex 14 24.2487 0
    endloop
  endfacet
  facet normal 0 0 -1
    outer loop
      vertex 9.25 16.0215 0
      vertex 14 24.2487 0
      vertex 12.3789 13.7482 0
    endloop
  endfacet
  facet normal 0 0 -1
    outer loop
      vertex 9.25 16.0215 0
      vertex 8.65248 26.6296 0
      vertex 14 24.2487 0
    endloop
  endfacet
  facet normal 0 0 -1
    outer loop
      vertex 5.71681 17.5945 0
      vertex 8.65248 26.6296 0
      vertex 9.25 16.0215 0
    endloop
  endfacet
  facet normal 0 0 -1
    outer loop
      vertex 5.71681 17.5945 0
      vertex 2.9268 27.8466 0
      vertex 8.65248 26.6296 0
    endloop
  endfacet
  facet normal 0 0 -1
    outer loop
      vertex 1.93378 18.3987 0
      vertex 2.9268 27.8466 0
      vertex 5.71681 17.5945 0
    endloop
  endfacet
  facet normal 0 0 -1
    outer loop
      vertex -1.93378 18.3987 0
      vertex 2.9268 27.8466 0
      vertex 1.93378 18.3987 0
    endloop
  endfacet
  facet normal 0 0 -1
    outer loop
      vertex -1.93378 18.3987 0
      vertex -2.9268 27.8466 0
      vertex 2.9268 27.8466 0
    endloop
  endfacet
  facet normal 0 0 -1
    outer loop
      vertex -5.71681 17.5945 0
      vertex -2.9268 27.8466 0
      vertex -1.93378 18.3987 0
    endloop
  endfacet
  facet normal 0 0 -1
    outer loop
      vertex -5.71681 17.5945 0
      vertex -8.65248 26.6296 0
      vertex -2.9268 27.8466 0
    endloop
  endfacet
  facet normal 0 0 -1
    outer loop
      vertex -9.25 16.0215 0
      vertex -8.65248 26.6296 0
      vertex -5.71681 17.5945 0
    endloop
  endfacet
  facet normal 0 0 -1
    outer loop
      vertex -14 24.2487 0
      vertex -9.25 16.0215 0
      vertex -12.3789 13.7482 0
    endloop
  endfacet
  facet normal 0 0 -1
    outer loop
      vertex -9.25 16.0215 0
      vertex -14 24.2487 0
      vertex -8.65248 26.6296 0
    endloop
  endfacet
  facet normal 0 0 -1
    outer loop
      vertex -18.7357 20.8081 0
      vertex -12.3789 13.7482 0
      vertex -14.9668 10.874 0
    endloop
  endfacet
  facet normal 0 0 -1
    outer loop
      vertex -22.6525 16.458 0
      vertex -14.9668 10.874 0
      vertex -16.9006 7.52463 0
    endloop
  endfacet
  facet normal 0 0 -1
    outer loop
      vertex -25.5793 11.3886 0
      vertex -16.9006 7.52463 0
      vertex -18.0957 3.84637 0
    endloop
  endfacet
  facet normal 0 0 -1
    outer loop
      vertex -12.3789 13.7482 0
      vertex -18.7357 20.8081 0
      vertex -14 24.2487 0
    endloop
  endfacet
  facet normal 0 0 -1
    outer loop
      vertex -27.3881 5.82153 0
      vertex -18.0957 3.84637 0
      vertex -18.5 0 0
    endloop
  endfacet
  facet normal -0 0 -1
    outer loop
      vertex -16.9006 -7.52463 0
      vertex -25.5793 -11.3886 0
      vertex -18.0957 -3.84637 0
    endloop
  endfacet
  facet normal 0 0 -1
    outer loop
      vertex -27.3881 -5.82153 0
      vertex -18.0957 -3.84637 0
      vertex -25.5793 -11.3886 0
    endloop
  endfacet
  facet normal 0 0 -1
    outer loop
      vertex -14.9668 10.874 0
      vertex -22.6525 16.458 0
      vertex -18.7357 20.8081 0
    endloop
  endfacet
  facet normal -0 0 -1
    outer loop
      vertex -18.0957 -3.84637 0
      vertex -27.3881 -5.82153 0
      vertex -18.5 0 0
    endloop
  endfacet
  facet normal 0 0 -1
    outer loop
      vertex -16.9006 7.52463 0
      vertex -25.5793 11.3886 0
      vertex -22.6525 16.458 0
    endloop
  endfacet
  facet normal 0 0 -1
    outer loop
      vertex -28 0 0
      vertex -18.5 0 0
      vertex -27.3881 -5.82153 0
    endloop
  endfacet
  facet normal 0 0 -1
    outer loop
      vertex -18.0957 3.84637 0
      vertex -27.3881 5.82153 0
      vertex -25.5793 11.3886 0
    endloop
  endfacet
  facet normal 0 0 -1
    outer loop
      vertex -18.5 0 0
      vertex -28 0 0
      vertex -27.3881 5.82153 0
    endloop
  endfacet
  facet normal -0.406741 -0.913544 0
    outer loop
      vertex -14 -24.2487 0
      vertex -8.65248 -26.6296 200
      vertex -14 -24.2487 200
    endloop
  endfacet
  facet normal -0.406741 -0.913544 -0
    outer loop
      vertex -8.65248 -26.6296 200
      vertex -14 -24.2487 0
      vertex -8.65248 -26.6296 0
    endloop
  endfacet
  facet normal 0.951059 -0.309008 0
    outer loop
      vertex -18.0957 3.84637 200
      vertex -16.9006 7.52463 0
      vertex -16.9006 7.52463 200
    endloop
  endfacet
  facet normal 0.951059 -0.309008 0
    outer loop
      vertex -16.9006 7.52463 0
      vertex -18.0957 3.84637 200
      vertex -18.0957 3.84637 0
    endloop
  endfacet
  facet normal 0.994521 -0.104536 0
    outer loop
      vertex -18.5 0 200
      vertex -18.0957 3.84637 0
      vertex -18.0957 3.84637 200
    endloop
  endfacet
  facet normal 0.994521 -0.104536 0
    outer loop
      vertex -18.0957 3.84637 0
      vertex -18.5 0 200
      vertex -18.5 0 0
    endloop
  endfacet
  facet normal -0.207934 0.978143 0
    outer loop
      vertex 5.71681 -17.5945 0
      vertex 1.93378 -18.3987 200
      vertex 5.71681 -17.5945 200
    endloop
  endfacet
  facet normal -0.207934 0.978143 0
    outer loop
      vertex 1.93378 -18.3987 200
      vertex 5.71681 -17.5945 0
      vertex 1.93378 -18.3987 0
    endloop
  endfacet
  facet normal 0.40672 0.913553 -0
    outer loop
      vertex -5.71681 -17.5945 0
      vertex -9.25 -16.0215 200
      vertex -5.71681 -17.5945 200
    endloop
  endfacet
  facet normal 0.40672 0.913553 0
    outer loop
      vertex -9.25 -16.0215 200
      vertex -5.71681 -17.5945 0
      vertex -9.25 -16.0215 0
    endloop
  endfacet
  facet normal -0.994521 0.104536 0
    outer loop
      vertex 18.0957 -3.84637 0
      vertex 18.5 0 200
      vertex 18.5 0 0
    endloop
  endfacet
  facet normal -0.994521 0.104536 0
    outer loop
      vertex 18.5 0 200
      vertex 18.0957 -3.84637 0
      vertex 18.0957 -3.84637 200
    endloop
  endfacet
  facet normal -0.866021 -0.500008 0
    outer loop
      vertex 16.9006 7.52463 0
      vertex 14.9668 10.874 200
      vertex 14.9668 10.874 0
    endloop
  endfacet
  facet normal -0.866021 -0.500008 0
    outer loop
      vertex 14.9668 10.874 200
      vertex 16.9006 7.52463 0
      vertex 16.9006 7.52463 200
    endloop
  endfacet
  facet normal -0.866021 0.500008 0
    outer loop
      vertex 14.9668 -10.874 0
      vertex 16.9006 -7.52463 200
      vertex 16.9006 -7.52463 0
    endloop
  endfacet
  facet normal -0.866021 0.500008 0
    outer loop
      vertex 16.9006 -7.52463 200
      vertex 14.9668 -10.874 0
      vertex 14.9668 -10.874 200
    endloop
  endfacet
  facet normal -0.994521 -0.104536 0
    outer loop
      vertex 18.5 0 0
      vertex 18.0957 3.84637 200
      vertex 18.0957 3.84637 0
    endloop
  endfacet
  facet normal -0.994521 -0.104536 0
    outer loop
      vertex 18.0957 3.84637 200
      vertex 18.5 0 0
      vertex 18.5 0 200
    endloop
  endfacet
  facet normal -0.207934 -0.978143 0
    outer loop
      vertex 1.93378 18.3987 0
      vertex 5.71681 17.5945 200
      vertex 1.93378 18.3987 200
    endloop
  endfacet
  facet normal -0.207934 -0.978143 -0
    outer loop
      vertex 5.71681 17.5945 200
      vertex 1.93378 18.3987 0
      vertex 5.71681 17.5945 0
    endloop
  endfacet
  facet normal 0.951059 0.309008 0
    outer loop
      vertex -16.9006 -7.52463 200
      vertex -18.0957 -3.84637 0
      vertex -18.0957 -3.84637 200
    endloop
  endfacet
  facet normal 0.951059 0.309008 0
    outer loop
      vertex -18.0957 -3.84637 0
      vertex -16.9006 -7.52463 200
      vertex -16.9006 -7.52463 0
    endloop
  endfacet
  facet normal -0.951059 -0.309008 0
    outer loop
      vertex 18.0957 3.84637 0
      vertex 16.9006 7.52463 200
      vertex 16.9006 7.52463 0
    endloop
  endfacet
  facet normal -0.951059 -0.309008 0
    outer loop
      vertex 16.9006 7.52463 200
      vertex 18.0957 3.84637 0
      vertex 18.0957 3.84637 200
    endloop
  endfacet
  facet normal 0.207934 0.978143 -0
    outer loop
      vertex -1.93378 -18.3987 0
      vertex -5.71681 -17.5945 200
      vertex -1.93378 -18.3987 200
    endloop
  endfacet
  facet normal 0.207934 0.978143 0
    outer loop
      vertex -5.71681 -17.5945 200
      vertex -1.93378 -18.3987 0
      vertex -5.71681 -17.5945 0
    endloop
  endfacet
  facet normal -0.40672 0.913553 0
    outer loop
      vertex 9.25 -16.0215 0
      vertex 5.71681 -17.5945 200
      vertex 9.25 -16.0215 200
    endloop
  endfacet
  facet normal -0.40672 0.913553 0
    outer loop
      vertex 5.71681 -17.5945 200
      vertex 9.25 -16.0215 0
      vertex 5.71681 -17.5945 0
    endloop
  endfacet
  facet normal -0.40672 -0.913553 0
    outer loop
      vertex 5.71681 17.5945 0
      vertex 9.25 16.0215 200
      vertex 5.71681 17.5945 200
    endloop
  endfacet
  facet normal -0.40672 -0.913553 -0
    outer loop
      vertex 9.25 16.0215 200
      vertex 5.71681 17.5945 0
      vertex 9.25 16.0215 0
    endloop
  endfacet
  facet normal 0.74315 -0.669125 0
    outer loop
      vertex -14.9668 10.874 200
      vertex -12.3789 13.7482 0
      vertex -12.3789 13.7482 200
    endloop
  endfacet
  facet normal 0.74315 -0.669125 0
    outer loop
      vertex -12.3789 13.7482 0
      vertex -14.9668 10.874 200
      vertex -14.9668 10.874 0
    endloop
  endfacet
  facet normal 0.207934 -0.978143 0
    outer loop
      vertex -5.71681 17.5945 0
      vertex -1.93378 18.3987 200
      vertex -5.71681 17.5945 200
    endloop
  endfacet
  facet normal 0.207934 -0.978143 0
    outer loop
      vertex -1.93378 18.3987 200
      vertex -5.71681 17.5945 0
      vertex -1.93378 18.3987 0
    endloop
  endfacet
  facet normal -0.587789 0.809014 0
    outer loop
      vertex 12.3789 -13.7482 0
      vertex 9.25 -16.0215 200
      vertex 12.3789 -13.7482 200
    endloop
  endfacet
  facet normal -0.587789 0.809014 0
    outer loop
      vertex 9.25 -16.0215 200
      vertex 12.3789 -13.7482 0
      vertex 9.25 -16.0215 0
    endloop
  endfacet
  facet normal 0.587789 0.809014 -0
    outer loop
      vertex -9.25 -16.0215 0
      vertex -12.3789 -13.7482 200
      vertex -9.25 -16.0215 200
    endloop
  endfacet
  facet normal 0.587789 0.809014 0
    outer loop
      vertex -12.3789 -13.7482 200
      vertex -9.25 -16.0215 0
      vertex -12.3789 -13.7482 0
    endloop
  endfacet
  facet normal 0 -1 0
    outer loop
      vertex -1.93378 18.3987 0
      vertex 1.93378 18.3987 200
      vertex -1.93378 18.3987 200
    endloop
  endfacet
  facet normal 0 -1 -0
    outer loop
      vertex 1.93378 18.3987 200
      vertex -1.93378 18.3987 0
      vertex 1.93378 18.3987 0
    endloop
  endfacet
  facet normal 0.866021 -0.500008 0
    outer loop
      vertex -16.9006 7.52463 200
      vertex -14.9668 10.874 0
      vertex -14.9668 10.874 200
    endloop
  endfacet
  facet normal 0.866021 -0.500008 0
    outer loop
      vertex -14.9668 10.874 0
      vertex -16.9006 7.52463 200
      vertex -16.9006 7.52463 0
    endloop
  endfacet
  facet normal -0.587789 -0.809014 0
    outer loop
      vertex 9.25 16.0215 0
      vertex 12.3789 13.7482 200
      vertex 9.25 16.0215 200
    endloop
  endfacet
  facet normal -0.587789 -0.809014 -0
    outer loop
      vertex 12.3789 13.7482 200
      vertex 9.25 16.0215 0
      vertex 12.3789 13.7482 0
    endloop
  endfacet
  facet normal -0.74315 -0.669125 0
    outer loop
      vertex 14.9668 10.874 0
      vertex 12.3789 13.7482 200
      vertex 12.3789 13.7482 0
    endloop
  endfacet
  facet normal -0.74315 -0.669125 0
    outer loop
      vertex 12.3789 13.7482 200
      vertex 14.9668 10.874 0
      vertex 14.9668 10.874 200
    endloop
  endfacet
  facet normal -0.74315 0.669125 0
    outer loop
      vertex 12.3789 -13.7482 0
      vertex 14.9668 -10.874 200
      vertex 14.9668 -10.874 0
    endloop
  endfacet
  facet normal -0.74315 0.669125 0
    outer loop
      vertex 14.9668 -10.874 200
      vertex 12.3789 -13.7482 0
      vertex 12.3789 -13.7482 200
    endloop
  endfacet
  facet normal 0.587789 -0.809014 0
    outer loop
      vertex -12.3789 13.7482 0
      vertex -9.25 16.0215 200
      vertex -12.3789 13.7482 200
    endloop
  endfacet
  facet normal 0.587789 -0.809014 0
    outer loop
      vertex -9.25 16.0215 200
      vertex -12.3789 13.7482 0
      vertex -9.25 16.0215 0
    endloop
  endfacet
  facet normal 0 1 -0
    outer loop
      vertex 1.93378 -18.3987 0
      vertex -1.93378 -18.3987 200
      vertex 1.93378 -18.3987 200
    endloop
  endfacet
  facet normal 0 1 0
    outer loop
      vertex -1.93378 -18.3987 200
      vertex 1.93378 -18.3987 0
      vertex -1.93378 -18.3987 0
    endloop
  endfacet
  facet normal 0.40672 -0.913553 0
    outer loop
      vertex -9.25 16.0215 0
      vertex -5.71681 17.5945 200
      vertex -9.25 16.0215 200
    endloop
  endfacet
  facet normal 0.40672 -0.913553 0
    outer loop
      vertex -5.71681 17.5945 200
      vertex -9.25 16.0215 0
      vertex -5.71681 17.5945 0
    endloop
  endfacet
  facet normal 0.866021 0.500008 0
    outer loop
      vertex -14.9668 -10.874 200
      vertex -16.9006 -7.52463 0
      vertex -16.9006 -7.52463 200
    endloop
  endfacet
  facet normal 0.866021 0.500008 0
    outer loop
      vertex -16.9006 -7.52463 0
      vertex -14.9668 -10.874 200
      vertex -14.9668 -10.874 0
    endloop
  endfacet
  facet normal 0.74315 0.669125 0
    outer loop
      vertex -12.3789 -13.7482 200
      vertex -14.9668 -10.874 0
      vertex -14.9668 -10.874 200
    endloop
  endfacet
  facet normal 0.74315 0.669125 0
    outer loop
      vertex -14.9668 -10.874 0
      vertex -12.3789 -13.7482 200
      vertex -12.3789 -13.7482 0
    endloop
  endfacet
  facet normal -0.951059 0.309008 0
    outer loop
      vertex 16.9006 -7.52463 0
      vertex 18.0957 -3.84637 200
      vertex 18.0957 -3.84637 0
    endloop
  endfacet
  facet normal -0.951059 0.309008 0
    outer loop
      vertex 18.0957 -3.84637 200
      vertex 16.9006 -7.52463 0
      vertex 16.9006 -7.52463 200
    endloop
  endfacet
  facet normal 0.994521 0.104536 0
    outer loop
      vertex -18.0957 -3.84637 200
      vertex -18.5 0 0
      vertex -18.5 0 200
    endloop
  endfacet
  facet normal 0.994521 0.104536 0
    outer loop
      vertex -18.5 0 0
      vertex -18.0957 -3.84637 200
      vertex -18.0957 -3.84637 0
    endloop
  endfacet
endsolid OpenSCAD_Model
