solid OpenSCAD_Model
  facet normal 0.951056 0.309017 0
    outer loop
      vertex 47.9292 10.1877 200
      vertex 44.7637 19.9301 0
      vertex 44.7637 19.9301 200
    endloop
  endfacet
  facet normal 0.951056 0.309017 0
    outer loop
      vertex 44.7637 19.9301 0
      vertex 47.9292 10.1877 200
      vertex 47.9292 10.1877 0
    endloop
  endfacet
  facet normal 0.994522 0.104531 0
    outer loop
      vertex 49 0 200
      vertex 47.9292 10.1877 0
      vertex 47.9292 10.1877 200
    endloop
  endfacet
  facet normal 0.994522 0.104531 0
    outer loop
      vertex 47.9292 10.1877 0
      vertex 49 0 200
      vertex 49 0 0
    endloop
  endfacet
  facet normal 0.866026 0.5 0
    outer loop
      vertex 44.7637 19.9301 200
      vertex 39.6418 28.8015 0
      vertex 39.6418 28.8015 200
    endloop
  endfacet
  facet normal 0.866026 0.5 0
    outer loop
      vertex 39.6418 28.8015 0
      vertex 44.7637 19.9301 200
      vertex 44.7637 19.9301 0
    endloop
  endfacet
  facet normal -0.406742 0.913543 0
    outer loop
      vertex -15.1418 46.6018 0
      vertex -24.5 42.4352 200
      vertex -15.1418 46.6018 200
    endloop
  endfacet
  facet normal -0.406742 0.913543 0
    outer loop
      vertex -24.5 42.4352 200
      vertex -15.1418 46.6018 0
      vertex -24.5 42.4352 0
    endloop
  endfacet
  facet normal 0.406742 0.913543 -0
    outer loop
      vertex 24.5 42.4352 0
      vertex 15.1418 46.6018 200
      vertex 24.5 42.4352 200
    endloop
  endfacet
  facet normal 0.406742 0.913543 0
    outer loop
      vertex 15.1418 46.6018 200
      vertex 24.5 42.4352 0
      vertex 15.1418 46.6018 0
    endloop
  endfacet
  facet normal 0.994522 -0.104531 0
    outer loop
      vertex 47.9292 -10.1877 200
      vertex 49 0 0
      vertex 49 0 200
    endloop
  endfacet
  facet normal 0.994522 -0.104531 0
    outer loop
      vertex 49 0 0
      vertex 47.9292 -10.1877 200
      vertex 47.9292 -10.1877 0
    endloop
  endfacet
  facet normal -0.743146 0.66913 0
    outer loop
      vertex -39.6418 28.8015 0
      vertex -32.7874 36.4141 200
      vertex -32.7874 36.4141 0
    endloop
  endfacet
  facet normal -0.743146 0.66913 0
    outer loop
      vertex -32.7874 36.4141 200
      vertex -39.6418 28.8015 0
      vertex -39.6418 28.8015 200
    endloop
  endfacet
  facet normal -0.587782 0.809019 0
    outer loop
      vertex -24.5 42.4352 0
      vertex -32.7874 36.4141 200
      vertex -24.5 42.4352 200
    endloop
  endfacet
  facet normal -0.587782 0.809019 0
    outer loop
      vertex -32.7874 36.4141 200
      vertex -24.5 42.4352 0
      vertex -32.7874 36.4141 0
    endloop
  endfacet
  facet normal 0.743146 0.66913 0
    outer loop
      vertex 39.6418 28.8015 200
      vertex 32.7874 36.4141 0
      vertex 32.7874 36.4141 200
    endloop
  endfacet
  facet normal 0.743146 0.66913 0
    outer loop
      vertex 32.7874 36.4141 0
      vertex 39.6418 28.8015 200
      vertex 39.6418 28.8015 0
    endloop
  endfacet
  facet normal 0.951056 -0.309017 0
    outer loop
      vertex 44.7637 -19.9301 200
      vertex 47.9292 -10.1877 0
      vertex 47.9292 -10.1877 200
    endloop
  endfacet
  facet normal 0.951056 -0.309017 0
    outer loop
      vertex 47.9292 -10.1877 0
      vertex 44.7637 -19.9301 200
      vertex 44.7637 -19.9301 0
    endloop
  endfacet
  facet normal -0.406742 -0.913543 0
    outer loop
      vertex -24.5 -42.4352 0
      vertex -15.1418 -46.6018 200
      vertex -24.5 -42.4352 200
    endloop
  endfacet
  facet normal -0.406742 -0.913543 -0
    outer loop
      vertex -15.1418 -46.6018 200
      vertex -24.5 -42.4352 0
      vertex -15.1418 -46.6018 0
    endloop
  endfacet
  facet normal -0.866026 -0.5 0
    outer loop
      vertex -39.6418 -28.8015 0
      vertex -44.7637 -19.9301 200
      vertex -44.7637 -19.9301 0
    endloop
  endfacet
  facet normal -0.866026 -0.5 0
    outer loop
      vertex -44.7637 -19.9301 200
      vertex -39.6418 -28.8015 0
      vertex -39.6418 -28.8015 200
    endloop
  endfacet
  facet normal -0.951056 0.309017 0
    outer loop
      vertex -47.9292 10.1877 0
      vertex -44.7637 19.9301 200
      vertex -44.7637 19.9301 0
    endloop
  endfacet
  facet normal -0.951056 0.309017 0
    outer loop
      vertex -44.7637 19.9301 200
      vertex -47.9292 10.1877 0
      vertex -47.9292 10.1877 200
    endloop
  endfacet
  facet normal -0.207912 -0.978148 0
    outer loop
      vertex -15.1418 -46.6018 0
      vertex -5.12189 -48.7316 200
      vertex -15.1418 -46.6018 200
    endloop
  endfacet
  facet normal -0.207912 -0.978148 -0
    outer loop
      vertex -5.12189 -48.7316 200
      vertex -15.1418 -46.6018 0
      vertex -5.12189 -48.7316 0
    endloop
  endfacet
  facet normal -0.951056 -0.309017 0
    outer loop
      vertex -44.7637 -19.9301 0
      vertex -47.9292 -10.1877 200
      vertex -47.9292 -10.1877 0
    endloop
  endfacet
  facet normal -0.951056 -0.309017 0
    outer loop
      vertex -47.9292 -10.1877 200
      vertex -44.7637 -19.9301 0
      vertex -44.7637 -19.9301 200
    endloop
  endfacet
  facet normal -0.994522 0.104531 0
    outer loop
      vertex -49 0 0
      vertex -47.9292 10.1877 200
      vertex -47.9292 10.1877 0
    endloop
  endfacet
  facet normal -0.994522 0.104531 0
    outer loop
      vertex -47.9292 10.1877 200
      vertex -49 0 0
      vertex -49 0 200
    endloop
  endfacet
  facet normal 0 1 -0
    outer loop
      vertex 5.12189 48.7316 0
      vertex -5.12189 48.7316 200
      vertex 5.12189 48.7316 200
    endloop
  endfacet
  facet normal 0 1 0
    outer loop
      vertex -5.12189 48.7316 200
      vertex 5.12189 48.7316 0
      vertex -5.12189 48.7316 0
    endloop
  endfacet
  facet normal 0.743146 -0.66913 0
    outer loop
      vertex 32.7874 -36.4141 200
      vertex 39.6418 -28.8015 0
      vertex 39.6418 -28.8015 200
    endloop
  endfacet
  facet normal 0.743146 -0.66913 0
    outer loop
      vertex 39.6418 -28.8015 0
      vertex 32.7874 -36.4141 200
      vertex 32.7874 -36.4141 0
    endloop
  endfacet
  facet normal 0.207912 -0.978148 0
    outer loop
      vertex 5.12189 -48.7316 0
      vertex 15.1418 -46.6018 200
      vertex 5.12189 -48.7316 200
    endloop
  endfacet
  facet normal 0.207912 -0.978148 0
    outer loop
      vertex 15.1418 -46.6018 200
      vertex 5.12189 -48.7316 0
      vertex 15.1418 -46.6018 0
    endloop
  endfacet
  facet normal 0.866026 -0.5 0
    outer loop
      vertex 39.6418 -28.8015 200
      vertex 44.7637 -19.9301 0
      vertex 44.7637 -19.9301 200
    endloop
  endfacet
  facet normal 0.866026 -0.5 0
    outer loop
      vertex 44.7637 -19.9301 0
      vertex 39.6418 -28.8015 200
      vertex 39.6418 -28.8015 0
    endloop
  endfacet
  facet normal 0.207912 0.978148 -0
    outer loop
      vertex 15.1418 46.6018 0
      vertex 5.12189 48.7316 200
      vertex 15.1418 46.6018 200
    endloop
  endfacet
  facet normal 0.207912 0.978148 0
    outer loop
      vertex 5.12189 48.7316 200
      vertex 15.1418 46.6018 0
      vertex 5.12189 48.7316 0
    endloop
  endfacet
  facet normal 0.587782 -0.809019 0
    outer loop
      vertex 24.5 -42.4352 0
      vertex 32.7874 -36.4141 200
      vertex 24.5 -42.4352 200
    endloop
  endfacet
  facet normal 0.587782 -0.809019 0
    outer loop
      vertex 32.7874 -36.4141 200
      vertex 24.5 -42.4352 0
      vertex 32.7874 -36.4141 0
    endloop
  endfacet
  facet normal 0.587782 0.809019 -0
    outer loop
      vertex 32.7874 36.4141 0
      vertex 24.5 42.4352 200
      vertex 32.7874 36.4141 200
    endloop
  endfacet
  facet normal 0.587782 0.809019 0
    outer loop
      vertex 24.5 42.4352 200
      vertex 32.7874 36.4141 0
      vertex 24.5 42.4352 0
    endloop
  endfacet
  facet normal -0.207912 0.978148 0
    outer loop
      vertex -5.12189 48.7316 0
      vertex -15.1418 46.6018 200
      vertex -5.12189 48.7316 200
    endloop
  endfacet
  facet normal -0.207912 0.978148 0
    outer loop
      vertex -15.1418 46.6018 200
      vertex -5.12189 48.7316 0
      vertex -15.1418 46.6018 0
    endloop
  endfacet
  facet normal 0 -1 0
    outer loop
      vertex -5.12189 -48.7316 0
      vertex 5.12189 -48.7316 200
      vertex -5.12189 -48.7316 200
    endloop
  endfacet
  facet normal 0 -1 -0
    outer loop
      vertex 5.12189 -48.7316 200
      vertex -5.12189 -48.7316 0
      vertex 5.12189 -48.7316 0
    endloop
  endfacet
  facet normal -0.994522 -0.104531 0
    outer loop
      vertex -47.9292 -10.1877 0
      vertex -49 0 200
      vertex -49 0 0
    endloop
  endfacet
  facet normal -0.994522 -0.104531 0
    outer loop
      vertex -49 0 200
      vertex -47.9292 -10.1877 0
      vertex -47.9292 -10.1877 200
    endloop
  endfacet
  facet normal 0 0 -1
    outer loop
      vertex 16 0 0
      vertex 49 0 0
      vertex 47.9292 -10.1877 0
    endloop
  endfacet
  facet normal 0 0 -1
    outer loop
      vertex 15.6504 -3.32659 0
      vertex 47.9292 -10.1877 0
      vertex 44.7637 -19.9301 0
    endloop
  endfacet
  facet normal 0 0 -1
    outer loop
      vertex 49 0 0
      vertex 16 0 0
      vertex 47.9292 10.1877 0
    endloop
  endfacet
  facet normal 0 0 -1
    outer loop
      vertex 14.6167 -6.50779 0
      vertex 44.7637 -19.9301 0
      vertex 39.6418 -28.8015 0
    endloop
  endfacet
  facet normal 0 0 -1
    outer loop
      vertex 15.6504 3.32659 0
      vertex 47.9292 10.1877 0
      vertex 16 0 0
    endloop
  endfacet
  facet normal 0 0 -1
    outer loop
      vertex 12.9443 -9.40456 0
      vertex 39.6418 -28.8015 0
      vertex 32.7874 -36.4141 0
    endloop
  endfacet
  facet normal -0 0 -1
    outer loop
      vertex 47.9292 10.1877 0
      vertex 15.6504 3.32659 0
      vertex 44.7637 19.9301 0
    endloop
  endfacet
  facet normal 0 0 -1
    outer loop
      vertex 10.7061 -11.8903 0
      vertex 32.7874 -36.4141 0
      vertex 24.5 -42.4352 0
    endloop
  endfacet
  facet normal 0 0 -1
    outer loop
      vertex 14.6167 6.50779 0
      vertex 44.7637 19.9301 0
      vertex 15.6504 3.32659 0
    endloop
  endfacet
  facet normal -0 0 -1
    outer loop
      vertex 44.7637 19.9301 0
      vertex 14.6167 6.50779 0
      vertex 39.6418 28.8015 0
    endloop
  endfacet
  facet normal 0 0 -1
    outer loop
      vertex 47.9292 -10.1877 0
      vertex 15.6504 -3.32659 0
      vertex 16 0 0
    endloop
  endfacet
  facet normal 0 0 -1
    outer loop
      vertex 8 -13.8564 0
      vertex 24.5 -42.4352 0
      vertex 15.1418 -46.6018 0
    endloop
  endfacet
  facet normal 0 0 -1
    outer loop
      vertex 44.7637 -19.9301 0
      vertex 14.6167 -6.50779 0
      vertex 15.6504 -3.32659 0
    endloop
  endfacet
  facet normal 0 0 -1
    outer loop
      vertex 39.6418 -28.8015 0
      vertex 12.9443 -9.40456 0
      vertex 14.6167 -6.50779 0
    endloop
  endfacet
  facet normal 0 0 -1
    outer loop
      vertex 32.7874 -36.4141 0
      vertex 10.7061 -11.8903 0
      vertex 12.9443 -9.40456 0
    endloop
  endfacet
  facet normal 0 0 -1
    outer loop
      vertex 24.5 -42.4352 0
      vertex 8 -13.8564 0
      vertex 10.7061 -11.8903 0
    endloop
  endfacet
  facet normal 0 0 -1
    outer loop
      vertex 4.94427 -15.2169 0
      vertex 15.1418 -46.6018 0
      vertex 5.12189 -48.7316 0
    endloop
  endfacet
  facet normal 0 0 -1
    outer loop
      vertex 15.1418 -46.6018 0
      vertex 4.94427 -15.2169 0
      vertex 8 -13.8564 0
    endloop
  endfacet
  facet normal 0 0 -1
    outer loop
      vertex 5.12189 -48.7316 0
      vertex 1.67245 -15.9123 0
      vertex 4.94427 -15.2169 0
    endloop
  endfacet
  facet normal 0 0 -1
    outer loop
      vertex 5.12189 -48.7316 0
      vertex -1.67245 -15.9123 0
      vertex 1.67245 -15.9123 0
    endloop
  endfacet
  facet normal 0 0 -1
    outer loop
      vertex -5.12189 -48.7316 0
      vertex -1.67245 -15.9123 0
      vertex 5.12189 -48.7316 0
    endloop
  endfacet
  facet normal -0 0 -1
    outer loop
      vertex -1.67245 -15.9123 0
      vertex -5.12189 -48.7316 0
      vertex -4.94427 -15.2169 0
    endloop
  endfacet
  facet normal 0 0 -1
    outer loop
      vertex -15.1418 -46.6018 0
      vertex -4.94427 -15.2169 0
      vertex -5.12189 -48.7316 0
    endloop
  endfacet
  facet normal -0 0 -1
    outer loop
      vertex -4.94427 -15.2169 0
      vertex -15.1418 -46.6018 0
      vertex -8 -13.8564 0
    endloop
  endfacet
  facet normal 0 0 -1
    outer loop
      vertex -24.5 -42.4352 0
      vertex -8 -13.8564 0
      vertex -15.1418 -46.6018 0
    endloop
  endfacet
  facet normal -0 0 -1
    outer loop
      vertex -8 -13.8564 0
      vertex -24.5 -42.4352 0
      vertex -10.7061 -11.8903 0
    endloop
  endfacet
  facet normal 0 0 -1
    outer loop
      vertex -32.7874 -36.4141 0
      vertex -10.7061 -11.8903 0
      vertex -24.5 -42.4352 0
    endloop
  endfacet
  facet normal -0 0 -1
    outer loop
      vertex -10.7061 -11.8903 0
      vertex -32.7874 -36.4141 0
      vertex -12.9443 -9.40456 0
    endloop
  endfacet
  facet normal 0 0 -1
    outer loop
      vertex -39.6418 -28.8015 0
      vertex -12.9443 -9.40456 0
      vertex -32.7874 -36.4141 0
    endloop
  endfacet
  facet normal -0 0 -1
    outer loop
      vertex -12.9443 -9.40456 0
      vertex -39.6418 -28.8015 0
      vertex -14.6167 -6.50779 0
    endloop
  endfacet
  facet normal 0 0 -1
    outer loop
      vertex 12.9443 9.40456 0
      vertex 39.6418 28.8015 0
      vertex 14.6167 6.50779 0
    endloop
  endfacet
  facet normal -0 0 -1
    outer loop
      vertex 39.6418 28.8015 0
      vertex 12.9443 9.40456 0
      vertex 32.7874 36.4141 0
    endloop
  endfacet
  facet normal 0 0 -1
    outer loop
      vertex 10.7061 11.8903 0
      vertex 32.7874 36.4141 0
      vertex 12.9443 9.40456 0
    endloop
  endfacet
  facet normal -0 0 -1
    outer loop
      vertex 32.7874 36.4141 0
      vertex 10.7061 11.8903 0
      vertex 24.5 42.4352 0
    endloop
  endfacet
  facet normal 0 0 -1
    outer loop
      vertex 8 13.8564 0
      vertex 24.5 42.4352 0
      vertex 10.7061 11.8903 0
    endloop
  endfacet
  facet normal -0 0 -1
    outer loop
      vertex 24.5 42.4352 0
      vertex 8 13.8564 0
      vertex 15.1418 46.6018 0
    endloop
  endfacet
  facet normal 0 0 -1
    outer loop
      vertex 4.94427 15.2169 0
      vertex 15.1418 46.6018 0
      vertex 8 13.8564 0
    endloop
  endfacet
  facet normal -0 0 -1
    outer loop
      vertex 15.1418 46.6018 0
      vertex 4.94427 15.2169 0
      vertex 5.12189 48.7316 0
    endloop
  endfacet
  facet normal 0 0 -1
    outer loop
      vertex 1.67245 15.9123 0
      vertex 5.12189 48.7316 0
      vertex 4.94427 15.2169 0
    endloop
  endfacet
  facet normal 0 0 -1
    outer loop
      vertex -1.67245 15.9123 0
      vertex 5.12189 48.7316 0
      vertex 1.67245 15.9123 0
    endloop
  endfacet
  facet normal 0 0 -1
    outer loop
      vertex -5.12189 48.7316 0
      vertex -1.67245 15.9123 0
      vertex -4.94427 15.2169 0
    endloop
  endfacet
  facet normal 0 0 -1
    outer loop
      vertex -1.67245 15.9123 0
      vertex -5.12189 48.7316 0
      vertex 5.12189 48.7316 0
    endloop
  endfacet
  facet normal 0 0 -1
    outer loop
      vertex -15.1418 46.6018 0
      vertex -4.94427 15.2169 0
      vertex -8 13.8564 0
    endloop
  endfacet
  facet normal 0 0 -1
    outer loop
      vertex -24.5 42.4352 0
      vertex -8 13.8564 0
      vertex -10.7061 11.8903 0
    endloop
  endfacet
  facet normal 0 0 -1
    outer loop
      vertex -32.7874 36.4141 0
      vertex -10.7061 11.8903 0
      vertex -12.9443 9.40456 0
    endloop
  endfacet
  facet normal 0 0 -1
    outer loop
      vertex -39.6418 28.8015 0
      vertex -12.9443 9.40456 0
      vertex -14.6167 6.50779 0
    endloop
  endfacet
  facet normal 0 0 -1
    outer loop
      vertex -4.94427 15.2169 0
      vertex -15.1418 46.6018 0
      vertex -5.12189 48.7316 0
    endloop
  endfacet
  facet normal 0 0 -1
    outer loop
      vertex -44.7637 19.9301 0
      vertex -14.6167 6.50779 0
      vertex -15.6504 3.32659 0
    endloop
  endfacet
  facet normal 0 0 -1
    outer loop
      vertex -47.9292 10.1877 0
      vertex -15.6504 3.32659 0
      vertex -16 0 0
    endloop
  endfacet
  facet normal 0 0 -1
    outer loop
      vertex -44.7637 -19.9301 0
      vertex -14.6167 -6.50779 0
      vertex -39.6418 -28.8015 0
    endloop
  endfacet
  facet normal 0 0 -1
    outer loop
      vertex -8 13.8564 0
      vertex -24.5 42.4352 0
      vertex -15.1418 46.6018 0
    endloop
  endfacet
  facet normal -0 0 -1
    outer loop
      vertex -14.6167 -6.50779 0
      vertex -44.7637 -19.9301 0
      vertex -15.6504 -3.32659 0
    endloop
  endfacet
  facet normal 0 0 -1
    outer loop
      vertex -10.7061 11.8903 0
      vertex -32.7874 36.4141 0
      vertex -24.5 42.4352 0
    endloop
  endfacet
  facet normal 0 0 -1
    outer loop
      vertex -47.9292 -10.1877 0
      vertex -15.6504 -3.32659 0
      vertex -44.7637 -19.9301 0
    endloop
  endfacet
  facet normal 0 0 -1
    outer loop
      vertex -12.9443 9.40456 0
      vertex -39.6418 28.8015 0
      vertex -32.7874 36.4141 0
    endloop
  endfacet
  facet normal -0 0 -1
    outer loop
      vertex -15.6504 -3.32659 0
      vertex -47.9292 -10.1877 0
      vertex -16 0 0
    endloop
  endfacet
  facet normal 0 0 -1
    outer loop
      vertex -14.6167 6.50779 0
      vertex -44.7637 19.9301 0
      vertex -39.6418 28.8015 0
    endloop
  endfacet
  facet normal 0 0 -1
    outer loop
      vertex -49 0 0
      vertex -16 0 0
      vertex -47.9292 -10.1877 0
    endloop
  endfacet
  facet normal 0 0 -1
    outer loop
      vertex -15.6504 3.32659 0
      vertex -47.9292 10.1877 0
      vertex -44.7637 19.9301 0
    endloop
  endfacet
  facet normal 0 0 -1
    outer loop
      vertex -16 0 0
      vertex -49 0 0
      vertex -47.9292 10.1877 0
    endloop
  endfacet
  facet normal 0.406742 -0.913543 0
    outer loop
      vertex 15.1418 -46.6018 0
      vertex 24.5 -42.4352 200
      vertex 15.1418 -46.6018 200
    endloop
  endfacet
  facet normal 0.406742 -0.913543 0
    outer loop
      vertex 24.5 -42.4352 200
      vertex 15.1418 -46.6018 0
      vertex 24.5 -42.4352 0
    endloop
  endfacet
  facet normal -0.743146 -0.66913 0
    outer loop
      vertex -32.7874 -36.4141 0
      vertex -39.6418 -28.8015 200
      vertex -39.6418 -28.8015 0
    endloop
  endfacet
  facet normal -0.743146 -0.66913 0
    outer loop
      vertex -39.6418 -28.8015 200
      vertex -32.7874 -36.4141 0
      vertex -32.7874 -36.4141 200
    endloop
  endfacet
  facet normal 0 0 1
    outer loop
      vertex 16 0 200
      vertex 49 0 200
      vertex 47.9292 10.1877 200
    endloop
  endfacet
  facet normal 0 0 1
    outer loop
      vertex 15.6504 3.32659 200
      vertex 47.9292 10.1877 200
      vertex 44.7637 19.9301 200
    endloop
  endfacet
  facet normal 0 0 1
    outer loop
      vertex 49 0 200
      vertex 16 0 200
      vertex 47.9292 -10.1877 200
    endloop
  endfacet
  facet normal 0 0 1
    outer loop
      vertex 14.6167 6.50779 200
      vertex 44.7637 19.9301 200
      vertex 39.6418 28.8015 200
    endloop
  endfacet
  facet normal -0 0 1
    outer loop
      vertex 15.6504 -3.32659 200
      vertex 47.9292 -10.1877 200
      vertex 16 0 200
    endloop
  endfacet
  facet normal 0 0 1
    outer loop
      vertex 12.9443 9.40456 200
      vertex 39.6418 28.8015 200
      vertex 32.7874 36.4141 200
    endloop
  endfacet
  facet normal 0 0 1
    outer loop
      vertex 47.9292 -10.1877 200
      vertex 15.6504 -3.32659 200
      vertex 44.7637 -19.9301 200
    endloop
  endfacet
  facet normal 0 0 1
    outer loop
      vertex 10.7061 11.8903 200
      vertex 32.7874 36.4141 200
      vertex 24.5 42.4352 200
    endloop
  endfacet
  facet normal -0 0 1
    outer loop
      vertex 14.6167 -6.50779 200
      vertex 44.7637 -19.9301 200
      vertex 15.6504 -3.32659 200
    endloop
  endfacet
  facet normal 0 0 1
    outer loop
      vertex 44.7637 -19.9301 200
      vertex 14.6167 -6.50779 200
      vertex 39.6418 -28.8015 200
    endloop
  endfacet
  facet normal 0 0 1
    outer loop
      vertex 47.9292 10.1877 200
      vertex 15.6504 3.32659 200
      vertex 16 0 200
    endloop
  endfacet
  facet normal 0 0 1
    outer loop
      vertex 8 13.8564 200
      vertex 24.5 42.4352 200
      vertex 15.1418 46.6018 200
    endloop
  endfacet
  facet normal 0 0 1
    outer loop
      vertex 44.7637 19.9301 200
      vertex 14.6167 6.50779 200
      vertex 15.6504 3.32659 200
    endloop
  endfacet
  facet normal 0 0 1
    outer loop
      vertex 39.6418 28.8015 200
      vertex 12.9443 9.40456 200
      vertex 14.6167 6.50779 200
    endloop
  endfacet
  facet normal 0 0 1
    outer loop
      vertex 32.7874 36.4141 200
      vertex 10.7061 11.8903 200
      vertex 12.9443 9.40456 200
    endloop
  endfacet
  facet normal 0 0 1
    outer loop
      vertex 24.5 42.4352 200
      vertex 8 13.8564 200
      vertex 10.7061 11.8903 200
    endloop
  endfacet
  facet normal 0 0 1
    outer loop
      vertex 4.94427 15.2169 200
      vertex 15.1418 46.6018 200
      vertex 5.12189 48.7316 200
    endloop
  endfacet
  facet normal 0 0 1
    outer loop
      vertex 15.1418 46.6018 200
      vertex 4.94427 15.2169 200
      vertex 8 13.8564 200
    endloop
  endfacet
  facet normal 0 0 1
    outer loop
      vertex 5.12189 48.7316 200
      vertex 1.67245 15.9123 200
      vertex 4.94427 15.2169 200
    endloop
  endfacet
  facet normal 0 0 1
    outer loop
      vertex 5.12189 48.7316 200
      vertex -1.67245 15.9123 200
      vertex 1.67245 15.9123 200
    endloop
  endfacet
  facet normal -0 0 1
    outer loop
      vertex -5.12189 48.7316 200
      vertex -1.67245 15.9123 200
      vertex 5.12189 48.7316 200
    endloop
  endfacet
  facet normal 0 0 1
    outer loop
      vertex -1.67245 15.9123 200
      vertex -5.12189 48.7316 200
      vertex -4.94427 15.2169 200
    endloop
  endfacet
  facet normal -0 0 1
    outer loop
      vertex -15.1418 46.6018 200
      vertex -4.94427 15.2169 200
      vertex -5.12189 48.7316 200
    endloop
  endfacet
  facet normal 0 0 1
    outer loop
      vertex -4.94427 15.2169 200
      vertex -15.1418 46.6018 200
      vertex -8 13.8564 200
    endloop
  endfacet
  facet normal -0 0 1
    outer loop
      vertex -24.5 42.4352 200
      vertex -8 13.8564 200
      vertex -15.1418 46.6018 200
    endloop
  endfacet
  facet normal 0 0 1
    outer loop
      vertex -8 13.8564 200
      vertex -24.5 42.4352 200
      vertex -10.7061 11.8903 200
    endloop
  endfacet
  facet normal -0 0 1
    outer loop
      vertex -32.7874 36.4141 200
      vertex -10.7061 11.8903 200
      vertex -24.5 42.4352 200
    endloop
  endfacet
  facet normal 0 0 1
    outer loop
      vertex -10.7061 11.8903 200
      vertex -32.7874 36.4141 200
      vertex -12.9443 9.40456 200
    endloop
  endfacet
  facet normal -0 0 1
    outer loop
      vertex -39.6418 28.8015 200
      vertex -12.9443 9.40456 200
      vertex -32.7874 36.4141 200
    endloop
  endfacet
  facet normal 0 0 1
    outer loop
      vertex -12.9443 9.40456 200
      vertex -39.6418 28.8015 200
      vertex -14.6167 6.50779 200
    endloop
  endfacet
  facet normal -0 0 1
    outer loop
      vertex 12.9443 -9.40456 200
      vertex 39.6418 -28.8015 200
      vertex 14.6167 -6.50779 200
    endloop
  endfacet
  facet normal 0 0 1
    outer loop
      vertex 39.6418 -28.8015 200
      vertex 12.9443 -9.40456 200
      vertex 32.7874 -36.4141 200
    endloop
  endfacet
  facet normal -0 0 1
    outer loop
      vertex 10.7061 -11.8903 200
      vertex 32.7874 -36.4141 200
      vertex 12.9443 -9.40456 200
    endloop
  endfacet
  facet normal 0 0 1
    outer loop
      vertex 32.7874 -36.4141 200
      vertex 10.7061 -11.8903 200
      vertex 24.5 -42.4352 200
    endloop
  endfacet
  facet normal -0 0 1
    outer loop
      vertex 8 -13.8564 200
      vertex 24.5 -42.4352 200
      vertex 10.7061 -11.8903 200
    endloop
  endfacet
  facet normal 0 0 1
    outer loop
      vertex 24.5 -42.4352 200
      vertex 8 -13.8564 200
      vertex 15.1418 -46.6018 200
    endloop
  endfacet
  facet normal -0 0 1
    outer loop
      vertex 4.94427 -15.2169 200
      vertex 15.1418 -46.6018 200
      vertex 8 -13.8564 200
    endloop
  endfacet
  facet normal 0 0 1
    outer loop
      vertex 15.1418 -46.6018 200
      vertex 4.94427 -15.2169 200
      vertex 5.12189 -48.7316 200
    endloop
  endfacet
  facet normal -0 0 1
    outer loop
      vertex 1.67245 -15.9123 200
      vertex 5.12189 -48.7316 200
      vertex 4.94427 -15.2169 200
    endloop
  endfacet
  facet normal -0 0 1
    outer loop
      vertex -1.67245 -15.9123 200
      vertex 5.12189 -48.7316 200
      vertex 1.67245 -15.9123 200
    endloop
  endfacet
  facet normal 0 0 1
    outer loop
      vertex -5.12189 -48.7316 200
      vertex -1.67245 -15.9123 200
      vertex -4.94427 -15.2169 200
    endloop
  endfacet
  facet normal 0 0 1
    outer loop
      vertex -1.67245 -15.9123 200
      vertex -5.12189 -48.7316 200
      vertex 5.12189 -48.7316 200
    endloop
  endfacet
  facet normal 0 0 1
    outer loop
      vertex -15.1418 -46.6018 200
      vertex -4.94427 -15.2169 200
      vertex -8 -13.8564 200
    endloop
  endfacet
  facet normal 0 0 1
    outer loop
      vertex -24.5 -42.4352 200
      vertex -8 -13.8564 200
      vertex -10.7061 -11.8903 200
    endloop
  endfacet
  facet normal 0 0 1
    outer loop
      vertex -32.7874 -36.4141 200
      vertex -10.7061 -11.8903 200
      vertex -12.9443 -9.40456 200
    endloop
  endfacet
  facet normal 0 0 1
    outer loop
      vertex -39.6418 -28.8015 200
      vertex -12.9443 -9.40456 200
      vertex -14.6167 -6.50779 200
    endloop
  endfacet
  facet normal 0 0 1
    outer loop
      vertex -4.94427 -15.2169 200
      vertex -15.1418 -46.6018 200
      vertex -5.12189 -48.7316 200
    endloop
  endfacet
  facet normal 0 0 1
    outer loop
      vertex -44.7637 -19.9301 200
      vertex -14.6167 -6.50779 200
      vertex -15.6504 -3.32659 200
    endloop
  endfacet
  facet normal 0 0 1
    outer loop
      vertex -47.9292 -10.1877 200
      vertex -15.6504 -3.32659 200
      vertex -16 0 200
    endloop
  endfacet
  facet normal -0 0 1
    outer loop
      vertex -44.7637 19.9301 200
      vertex -14.6167 6.50779 200
      vertex -39.6418 28.8015 200
    endloop
  endfacet
  facet normal 0 0 1
    outer loop
      vertex -8 -13.8564 200
      vertex -24.5 -42.4352 200
      vertex -15.1418 -46.6018 200
    endloop
  endfacet
  facet normal 0 0 1
    outer loop
      vertex -14.6167 6.50779 200
      vertex -44.7637 19.9301 200
      vertex -15.6504 3.32659 200
    endloop
  endfacet
  facet normal 0 0 1
    outer loop
      vertex -10.7061 -11.8903 200
      vertex -32.7874 -36.4141 200
      vertex -24.5 -42.4352 200
    endloop
  endfacet
  facet normal -0 0 1
    outer loop
      vertex -47.9292 10.1877 200
      vertex -15.6504 3.32659 200
      vertex -44.7637 19.9301 200
    endloop
  endfacet
  facet normal 0 0 1
    outer loop
      vertex -12.9443 -9.40456 200
      vertex -39.6418 -28.8015 200
      vertex -32.7874 -36.4141 200
    endloop
  endfacet
  facet normal 0 0 1
    outer loop
      vertex -15.6504 3.32659 200
      vertex -47.9292 10.1877 200
      vertex -16 0 200
    endloop
  endfacet
  facet normal 0 0 1
    outer loop
      vertex -14.6167 -6.50779 200
      vertex -44.7637 -19.9301 200
      vertex -39.6418 -28.8015 200
    endloop
  endfacet
  facet normal 0 0 1
    outer loop
      vertex -49 0 200
      vertex -16 0 200
      vertex -47.9292 10.1877 200
    endloop
  endfacet
  facet normal 0 0 1
    outer loop
      vertex -15.6504 -3.32659 200
      vertex -47.9292 -10.1877 200
      vertex -44.7637 -19.9301 200
    endloop
  endfacet
  facet normal 0 0 1
    outer loop
      vertex -16 0 200
      vertex -49 0 200
      vertex -47.9292 -10.1877 200
    endloop
  endfacet
  facet normal -0.587782 -0.809019 0
    outer loop
      vertex -32.7874 -36.4141 0
      vertex -24.5 -42.4352 200
      vertex -32.7874 -36.4141 200
    endloop
  endfacet
  facet normal -0.587782 -0.809019 -0
    outer loop
      vertex -24.5 -42.4352 200
      vertex -32.7874 -36.4141 0
      vertex -24.5 -42.4352 0
    endloop
  endfacet
  facet normal -0.866026 0.5 0
    outer loop
      vertex -44.7637 19.9301 0
      vertex -39.6418 28.8015 200
      vertex -39.6418 28.8015 0
    endloop
  endfacet
  facet normal -0.866026 0.5 0
    outer loop
      vertex -39.6418 28.8015 200
      vertex -44.7637 19.9301 0
      vertex -44.7637 19.9301 200
    endloop
  endfacet
  facet normal -0.951051 -0.309035 0
    outer loop
      vertex 15.6504 3.32659 0
      vertex 14.6167 6.50779 200
      vertex 14.6167 6.50779 0
    endloop
  endfacet
  facet normal -0.951051 -0.309035 0
    outer loop
      vertex 14.6167 6.50779 200
      vertex 15.6504 3.32659 0
      vertex 15.6504 3.32659 200
    endloop
  endfacet
  facet normal -0.994523 -0.104517 0
    outer loop
      vertex 16 0 0
      vertex 15.6504 3.32659 200
      vertex 15.6504 3.32659 0
    endloop
  endfacet
  facet normal -0.994523 -0.104517 0
    outer loop
      vertex 15.6504 3.32659 200
      vertex 16 0 0
      vertex 16 0 200
    endloop
  endfacet
  facet normal -0.866032 -0.499989 0
    outer loop
      vertex 14.6167 6.50779 0
      vertex 12.9443 9.40456 200
      vertex 12.9443 9.40456 0
    endloop
  endfacet
  facet normal -0.866032 -0.499989 0
    outer loop
      vertex 12.9443 9.40456 200
      vertex 14.6167 6.50779 0
      vertex 14.6167 6.50779 200
    endloop
  endfacet
  facet normal 0.406737 -0.913545 0
    outer loop
      vertex -8 13.8564 0
      vertex -4.94427 15.2169 200
      vertex -8 13.8564 200
    endloop
  endfacet
  facet normal 0.406737 -0.913545 0
    outer loop
      vertex -4.94427 15.2169 200
      vertex -8 13.8564 0
      vertex -4.94427 15.2169 0
    endloop
  endfacet
  facet normal -0.406737 -0.913545 0
    outer loop
      vertex 4.94427 15.2169 0
      vertex 8 13.8564 200
      vertex 4.94427 15.2169 200
    endloop
  endfacet
  facet normal -0.406737 -0.913545 -0
    outer loop
      vertex 8 13.8564 200
      vertex 4.94427 15.2169 0
      vertex 8 13.8564 0
    endloop
  endfacet
  facet normal -0.994523 0.104517 0
    outer loop
      vertex 15.6504 -3.32659 0
      vertex 16 0 200
      vertex 16 0 0
    endloop
  endfacet
  facet normal -0.994523 0.104517 0
    outer loop
      vertex 16 0 200
      vertex 15.6504 -3.32659 0
      vertex 15.6504 -3.32659 200
    endloop
  endfacet
  facet normal 0.74314 -0.669136 0
    outer loop
      vertex -12.9443 9.40456 200
      vertex -10.7061 11.8903 0
      vertex -10.7061 11.8903 200
    endloop
  endfacet
  facet normal 0.74314 -0.669136 0
    outer loop
      vertex -10.7061 11.8903 0
      vertex -12.9443 9.40456 200
      vertex -12.9443 9.40456 0
    endloop
  endfacet
  facet normal 0.587786 -0.809017 0
    outer loop
      vertex -10.7061 11.8903 0
      vertex -8 13.8564 200
      vertex -10.7061 11.8903 200
    endloop
  endfacet
  facet normal 0.587786 -0.809017 0
    outer loop
      vertex -8 13.8564 200
      vertex -10.7061 11.8903 0
      vertex -8 13.8564 0
    endloop
  endfacet
  facet normal -0.74314 -0.669136 0
    outer loop
      vertex 12.9443 9.40456 0
      vertex 10.7061 11.8903 200
      vertex 10.7061 11.8903 0
    endloop
  endfacet
  facet normal -0.74314 -0.669136 0
    outer loop
      vertex 10.7061 11.8903 200
      vertex 12.9443 9.40456 0
      vertex 12.9443 9.40456 200
    endloop
  endfacet
  facet normal -0.951051 0.309035 0
    outer loop
      vertex 14.6167 -6.50779 0
      vertex 15.6504 -3.32659 200
      vertex 15.6504 -3.32659 0
    endloop
  endfacet
  facet normal -0.951051 0.309035 0
    outer loop
      vertex 15.6504 -3.32659 200
      vertex 14.6167 -6.50779 0
      vertex 14.6167 -6.50779 200
    endloop
  endfacet
  facet normal 0.406737 0.913545 -0
    outer loop
      vertex -4.94427 -15.2169 0
      vertex -8 -13.8564 200
      vertex -4.94427 -15.2169 200
    endloop
  endfacet
  facet normal 0.406737 0.913545 0
    outer loop
      vertex -8 -13.8564 200
      vertex -4.94427 -15.2169 0
      vertex -8 -13.8564 0
    endloop
  endfacet
  facet normal 0.866032 0.499989 0
    outer loop
      vertex -12.9443 -9.40456 200
      vertex -14.6167 -6.50779 0
      vertex -14.6167 -6.50779 200
    endloop
  endfacet
  facet normal 0.866032 0.499989 0
    outer loop
      vertex -14.6167 -6.50779 0
      vertex -12.9443 -9.40456 200
      vertex -12.9443 -9.40456 0
    endloop
  endfacet
  facet normal 0.951051 -0.309035 0
    outer loop
      vertex -15.6504 3.32659 200
      vertex -14.6167 6.50779 0
      vertex -14.6167 6.50779 200
    endloop
  endfacet
  facet normal 0.951051 -0.309035 0
    outer loop
      vertex -14.6167 6.50779 0
      vertex -15.6504 3.32659 200
      vertex -15.6504 3.32659 0
    endloop
  endfacet
  facet normal 0.207898 0.97815 -0
    outer loop
      vertex -1.67245 -15.9123 0
      vertex -4.94427 -15.2169 200
      vertex -1.67245 -15.9123 200
    endloop
  endfacet
  facet normal 0.207898 0.97815 0
    outer loop
      vertex -4.94427 -15.2169 200
      vertex -1.67245 -15.9123 0
      vertex -4.94427 -15.2169 0
    endloop
  endfacet
  facet normal 0.951051 0.309035 0
    outer loop
      vertex -14.6167 -6.50779 200
      vertex -15.6504 -3.32659 0
      vertex -15.6504 -3.32659 200
    endloop
  endfacet
  facet normal 0.951051 0.309035 0
    outer loop
      vertex -15.6504 -3.32659 0
      vertex -14.6167 -6.50779 200
      vertex -14.6167 -6.50779 0
    endloop
  endfacet
  facet normal 0.994523 -0.104517 0
    outer loop
      vertex -16 0 200
      vertex -15.6504 3.32659 0
      vertex -15.6504 3.32659 200
    endloop
  endfacet
  facet normal 0.994523 -0.104517 0
    outer loop
      vertex -15.6504 3.32659 0
      vertex -16 0 200
      vertex -16 0 0
    endloop
  endfacet
  facet normal 0 -1 0
    outer loop
      vertex -1.67245 15.9123 0
      vertex 1.67245 15.9123 200
      vertex -1.67245 15.9123 200
    endloop
  endfacet
  facet normal 0 -1 -0
    outer loop
      vertex 1.67245 15.9123 200
      vertex -1.67245 15.9123 0
      vertex 1.67245 15.9123 0
    endloop
  endfacet
  facet normal -0.74314 0.669136 0
    outer loop
      vertex 10.7061 -11.8903 0
      vertex 12.9443 -9.40456 200
      vertex 12.9443 -9.40456 0
    endloop
  endfacet
  facet normal -0.74314 0.669136 0
    outer loop
      vertex 12.9443 -9.40456 200
      vertex 10.7061 -11.8903 0
      vertex 10.7061 -11.8903 200
    endloop
  endfacet
  facet normal -0.207898 0.97815 0
    outer loop
      vertex 4.94427 -15.2169 0
      vertex 1.67245 -15.9123 200
      vertex 4.94427 -15.2169 200
    endloop
  endfacet
  facet normal -0.207898 0.97815 0
    outer loop
      vertex 1.67245 -15.9123 200
      vertex 4.94427 -15.2169 0
      vertex 1.67245 -15.9123 0
    endloop
  endfacet
  facet normal -0.866032 0.499989 0
    outer loop
      vertex 12.9443 -9.40456 0
      vertex 14.6167 -6.50779 200
      vertex 14.6167 -6.50779 0
    endloop
  endfacet
  facet normal -0.866032 0.499989 0
    outer loop
      vertex 14.6167 -6.50779 200
      vertex 12.9443 -9.40456 0
      vertex 12.9443 -9.40456 200
    endloop
  endfacet
  facet normal -0.207898 -0.97815 0
    outer loop
      vertex 1.67245 15.9123 0
      vertex 4.94427 15.2169 200
      vertex 1.67245 15.9123 200
    endloop
  endfacet
  facet normal -0.207898 -0.97815 -0
    outer loop
      vertex 4.94427 15.2169 200
      vertex 1.67245 15.9123 0
      vertex 4.94427 15.2169 0
    endloop
  endfacet
  facet normal -0.587786 0.809017 0
    outer loop
      vertex 10.7061 -11.8903 0
      vertex 8 -13.8564 200
      vertex 10.7061 -11.8903 200
    endloop
  endfacet
  facet normal -0.587786 0.809017 0
    outer loop
      vertex 8 -13.8564 200
      vertex 10.7061 -11.8903 0
      vertex 8 -13.8564 0
    endloop
  endfacet
  facet normal -0.587786 -0.809017 0
    outer loop
      vertex 8 13.8564 0
      vertex 10.7061 11.8903 200
      vertex 8 13.8564 200
    endloop
  endfacet
  facet normal -0.587786 -0.809017 -0
    outer loop
      vertex 10.7061 11.8903 200
      vertex 8 13.8564 0
      vertex 10.7061 11.8903 0
    endloop
  endfacet
  facet normal 0.207898 -0.97815 0
    outer loop
      vertex -4.94427 15.2169 0
      vertex -1.67245 15.9123 200
      vertex -4.94427 15.2169 200
    endloop
  endfacet
  facet normal 0.207898 -0.97815 0
    outer loop
      vertex -1.67245 15.9123 200
      vertex -4.94427 15.2169 0
      vertex -1.67245 15.9123 0
    endloop
  endfacet
  facet normal 0 1 -0
    outer loop
      vertex 1.67245 -15.9123 0
      vertex -1.67245 -15.9123 200
      vertex 1.67245 -15.9123 200
    endloop
  endfacet
  facet normal 0 1 0
    outer loop
      vertex -1.67245 -15.9123 200
      vertex 1.67245 -15.9123 0
      vertex -1.67245 -15.9123 0
    endloop
  endfacet
  facet normal 0.994523 0.104517 0
    outer loop
      vertex -15.6504 -3.32659 200
      vertex -16 0 0
      vertex -16 0 200
    endloop
  endfacet
  facet normal 0.994523 0.104517 0
    outer loop
      vertex -16 0 0
      vertex -15.6504 -3.32659 200
      vertex -15.6504 -3.32659 0
    endloop
  endfacet
  facet normal -0.406737 0.913545 0
    outer loop
      vertex 8 -13.8564 0
      vertex 4.94427 -15.2169 200
      vertex 8 -13.8564 200
    endloop
  endfacet
  facet normal -0.406737 0.913545 0
    outer loop
      vertex 4.94427 -15.2169 200
      vertex 8 -13.8564 0
      vertex 4.94427 -15.2169 0
    endloop
  endfacet
  facet normal 0.74314 0.669136 0
    outer loop
      vertex -10.7061 -11.8903 200
      vertex -12.9443 -9.40456 0
      vertex -12.9443 -9.40456 200
    endloop
  endfacet
  facet normal 0.74314 0.669136 0
    outer loop
      vertex -12.9443 -9.40456 0
      vertex -10.7061 -11.8903 200
      vertex -10.7061 -11.8903 0
    endloop
  endfacet
  facet normal 0.587786 0.809017 -0
    outer loop
      vertex -8 -13.8564 0
      vertex -10.7061 -11.8903 200
      vertex -8 -13.8564 200
    endloop
  endfacet
  facet normal 0.587786 0.809017 0
    outer loop
      vertex -10.7061 -11.8903 200
      vertex -8 -13.8564 0
      vertex -10.7061 -11.8903 0
    endloop
  endfacet
  facet normal 0.866032 -0.499989 0
    outer loop
      vertex -14.6167 6.50779 200
      vertex -12.9443 9.40456 0
      vertex -12.9443 9.40456 200
    endloop
  endfacet
  facet normal 0.866032 -0.499989 0
    outer loop
      vertex -12.9443 9.40456 0
      vertex -14.6167 6.50779 200
      vertex -14.6167 6.50779 0
    endloop
  endfacet
endsolid OpenSCAD_Model
